<?xml version="1.0" encoding="utf-8"?>
<!-- Generator: Adobe Illustrator 24.1.2, SVG Export Plug-In . SVG Version: 6.00 Build 0)  -->
<svg version="1.1" id="Layer_1" xmlns="http://www.w3.org/2000/svg" xmlns:xlink="http://www.w3.org/1999/xlink" x="0px" y="0px"
	 viewBox="0 0 441.5 328" style="enable-background:new 0 0 441.5 328;" xml:space="preserve">
<style type="text/css">
	.st0{fill:#743100;}
	.st1{fill:#96DF00;}
	.st2{fill:#DF3200;}
</style>
<path class="st0" d="M210.8,0.1c7.5,2.5,7.5,9.6,61.6,45.4C329.2,83,439.9,149.2,439.9,149.2s6.5,4.4-6.5,8.8S404.5,140.5,199,22.1
	c0,0-150.5,109.6-175.3,150.5L0,150.6C0,150.6,197.6-4.4,210.8,0.1z"/>
<path class="st0" d="M73.6,71.1c22.7-19.9,33.4-26,33.4-26V0c0,0-29.4,5.3-50.9,28.2L73.6,71.1z"/>
<path class="st0" d="M50.3,161.8C33.7,132,95.8,327.2,95.8,327.2c7.1-3.4,38.2-20,34.3-19.5c0,0-5.7-13.6-28.4-40.2
	C75.2,236.5,52.4,165.5,50.3,161.8z"/>
<polygon class="st0" points="322.5,298.9 358.7,298.9 395.4,159.2 328.4,121.5 317.2,289.5 322.5,270.6 "/>
<path class="st1" d="M197.9,328c1.7,0,94.6-33.3,197.5,0H197.9z"/>
<polygon class="st2" points="136.3,144.2 143.7,199.3 187.1,199.3 187.1,134.6 "/>
<polygon class="st2" points="204.4,135 198.3,193.8 233.6,186.6 242.9,122.3 "/>
<polygon class="st2" points="147.1,215.4 167.5,273.7 198.7,273.7 196.7,267.3 181.2,215.4 "/>
<polygon class="st2" points="199.5,206.6 206.9,265.5 242.7,264.6 242.7,206.3 "/>
</svg>
